<?xml version="1.0" encoding="utf-8"?>
<!-- Generator: Adobe Illustrator 27.4.0, SVG Export Plug-In . SVG Version: 6.00 Build 0)  -->
<svg version="1.1" id="Layer_1" xmlns="http://www.w3.org/2000/svg" xmlns:xlink="http://www.w3.org/1999/xlink" x="0px" y="0px"
	 viewBox="0 0 128 128" style="enable-background:new 0 0 128 128;" xml:space="preserve">
<style type="text/css">
	.st0{fill:none;stroke:#231F20;stroke-miterlimit:10;}
	.st1{fill:url(#SVGID_1_);stroke:#808285;stroke-width:2;stroke-miterlimit:10;}
	.st2{fill:#FFFFFF;stroke:#231F20;stroke-width:2;stroke-miterlimit:10;}
	.st3{opacity:0.33;fill:#231F20;stroke:#231F20;stroke-miterlimit:10;}
</style>
<path class="st0" d="M25.07,84.17"/>
<linearGradient id="SVGID_1_" gradientUnits="userSpaceOnUse" x1="3.4815" y1="104.5856" x2="125" y2="104.5856">
	<stop  offset="0" style="stop-color:#FFFFFF"/>
	<stop  offset="0.2025" style="stop-color:#FCFCFC"/>
	<stop  offset="0.3789" style="stop-color:#F1F1F1"/>
	<stop  offset="0.5456" style="stop-color:#DFDFDF"/>
	<stop  offset="0.7063" style="stop-color:#C6C6C6"/>
	<stop  offset="0.8612" style="stop-color:#A6A6A6"/>
	<stop  offset="1" style="stop-color:#828282"/>
</linearGradient>
<path class="st1" d="M25.07,84.17c-5.7,0-14.7,7.58-14.7,17.2c0,2.2,0.4,4.3,1.15,6.24c-4.51,0.34-8.04,4.1-8.04,8.68
	c0,4.8,3.9,8.71,8.71,8.71h95.4c9.62,0,17.41-7.8,17.41-17.41c0-9.62-7.79-17.41-17.41-17.41c-0.59,0-1.16,0.03-1.74,0.09L105,88.22
	l-79.93,0.18V84.17z"/>
<path class="st2" d="M97.11,84.76H30.89c-1.82,0-3.3-1.48-3.3-3.3V9.69c0-1.82,1.48-3.3,3.3-3.3h66.22c1.82,0,3.3,1.48,3.3,3.3
	v71.78C100.41,83.29,98.93,84.76,97.11,84.76z"/>
<path class="st3" d="M57.33,16.33H33.41c-0.63,0-1.15-0.51-1.15-1.15v-1.41c0-0.63,0.51-1.15,1.15-1.15h23.93
	c0.63,0,1.15,0.51,1.15,1.15v1.41C58.48,15.81,57.97,16.33,57.33,16.33z"/>
<path class="st3" d="M94.78,16.33H63.19c-0.63,0-1.15-0.51-1.15-1.15v-1.41c0-0.63,0.51-1.15,1.15-1.15h31.59
	c0.63,0,1.15,0.51,1.15,1.15v1.41C95.93,15.81,95.41,16.33,94.78,16.33z"/>
<path class="st3" d="M69.83,26.49H55.85c-0.63,0-1.15-0.51-1.15-1.15v-1.41c0-0.63,0.51-1.15,1.15-1.15h13.98
	c0.63,0,1.15,0.51,1.15,1.15v1.41C70.98,25.97,70.47,26.49,69.83,26.49z"/>
<path class="st3" d="M49.83,26.49H33.46c-0.63,0-1.15-0.51-1.15-1.15v-1.41c0-0.63,0.51-1.15,1.15-1.15h16.37
	c0.63,0,1.15,0.51,1.15,1.15v1.41C50.98,25.97,50.47,26.49,49.83,26.49z"/>
<path class="st3" d="M94.83,26.49H76.35c-0.63,0-1.15-0.51-1.15-1.15v-1.41c0-0.63,0.51-1.15,1.15-1.15h18.48
	c0.63,0,1.15,0.51,1.15,1.15v1.41C95.98,25.97,95.47,26.49,94.83,26.49z"/>
<path class="st3" d="M80.33,36.65H33.46c-0.63,0-1.15-0.51-1.15-1.15v-1.41c0-0.63,0.51-1.15,1.15-1.15h46.87
	c0.63,0,1.15,0.51,1.15,1.15v1.41C81.48,36.13,80.97,36.65,80.33,36.65z"/>
<path class="st3" d="M94.83,36.65h-8.15c-0.63,0-1.15-0.51-1.15-1.15v-1.41c0-0.63,0.51-1.15,1.15-1.15h8.15
	c0.63,0,1.15,0.51,1.15,1.15v1.41C95.98,36.13,95.47,36.65,94.83,36.65z"/>
<path class="st3" d="M50.31,43.73h22.37c0.63,0,1.15,0.51,1.15,1.15v1.41c0,0.63-0.51,1.15-1.15,1.15H50.31
	c-0.63,0-1.15-0.51-1.15-1.15v-1.41C49.17,44.24,49.68,43.73,50.31,43.73z"/>
<path class="st3" d="M78.7,43.73h16.37c0.63,0,1.15,0.51,1.15,1.15v1.41c0,0.63-0.51,1.15-1.15,1.15H78.7
	c-0.63,0-1.15-0.51-1.15-1.15v-1.41C77.56,44.24,78.07,43.73,78.7,43.73z"/>
<path class="st3" d="M33.7,43.73h10.76c0.63,0,1.15,0.51,1.15,1.15v1.41c0,0.63-0.51,1.15-1.15,1.15H33.7
	c-0.63,0-1.15-0.51-1.15-1.15v-1.41C32.56,44.24,33.07,43.73,33.7,43.73z"/>
<path class="st3" d="M63.87,54.51h31.08c0.63,0,1.15,0.51,1.15,1.15v1.41c0,0.63-0.51,1.15-1.15,1.15H63.87
	c-0.63,0-1.15-0.51-1.15-1.15v-1.41C62.72,55.03,63.23,54.51,63.87,54.51z"/>
<path class="st3" d="M33.83,54.51h22.96c0.63,0,1.15,0.51,1.15,1.15v1.41c0,0.63-0.51,1.15-1.15,1.15H33.83
	c-0.63,0-1.15-0.51-1.15-1.15v-1.41C32.68,55.03,33.2,54.51,33.83,54.51z"/>
<path class="st3" d="M57.6,68.61H33.73c-0.63,0-1.15-0.51-1.15-1.15v-1.41c0-0.63,0.51-1.15,1.15-1.15H57.6
	c0.63,0,1.15,0.51,1.15,1.15v1.41C58.75,68.09,58.24,68.61,57.6,68.61z"/>
<path class="st3" d="M52.3,78.53h-8.15c-0.63,0-1.15-0.51-1.15-1.15v-1.41c0-0.63,0.51-1.15,1.15-1.15h8.15
	c0.63,0,1.15,0.51,1.15,1.15v1.41C53.44,78.02,52.93,78.53,52.3,78.53z"/>
<path class="st3" d="M38.85,78.53H33.7c-0.63,0-1.15-0.51-1.15-1.15v-1.41c0-0.63,0.51-1.15,1.15-1.15h5.15
	c0.63,0,1.15,0.51,1.15,1.15v1.41C40,78.02,39.49,78.53,38.85,78.53z"/>
<path class="st3" d="M95.07,78.53H58.26c-0.63,0-1.15-0.51-1.15-1.15v-1.41c0-0.63,0.51-1.15,1.15-1.15h36.81
	c0.63,0,1.15,0.51,1.15,1.15v1.41C96.22,78.02,95.71,78.53,95.07,78.53z"/>
<path class="st3" d="M95.05,68.61H63.48c-0.63,0-1.15-0.51-1.15-1.15v-1.41c0-0.63,0.51-1.15,1.15-1.15h31.56
	c0.63,0,1.15,0.51,1.15,1.15v1.41C96.19,68.09,95.68,68.61,95.05,68.61z"/>
<g>
</g>
<g>
</g>
<g>
</g>
<g>
</g>
<g>
</g>
<g>
</g>
</svg>
