<?xml version="1.0" encoding="utf-8"?>
<!-- Generator: Adobe Illustrator 27.4.0, SVG Export Plug-In . SVG Version: 6.00 Build 0)  -->
<svg version="1.1" id="Layer_1" xmlns="http://www.w3.org/2000/svg" xmlns:xlink="http://www.w3.org/1999/xlink" x="0px" y="0px"
	 viewBox="0 0 128 128" style="enable-background:new 0 0 128 128;" xml:space="preserve">
<style type="text/css">
	.st0{fill:#FFFFFF;stroke:#231F20;stroke-miterlimit:10;}
	.st1{fill:#FFFFFF;stroke:#231F20;stroke-width:8;stroke-miterlimit:10;}
	.st2{opacity:0.5;stroke:#000008;stroke-width:0.75;stroke-miterlimit:10;}
</style>
<path class="st0" d="M16,112"/>
<path class="st1" d="M131.88,64"/>
<path class="st1" d="M-3.88,64"/>
<path class="st2" d="M64,69.66l-45.17,45.17c-1.56,1.56-4.09,1.56-5.66,0c-1.56-1.56-1.56-4.09,0-5.66L58.34,64L13.17,18.83
	c-1.56-1.56-1.56-4.09,0-5.66s4.09-1.56,5.66,0L64,58.34l45.17-45.17c1.56-1.56,4.09-1.56,5.66,0c1.56,1.56,1.56,4.09,0,5.66
	L69.66,64l45.17,45.17c1.56,1.56,1.56,4.09,0,5.66c-1.56,1.56-4.09,1.56-5.66,0L64,69.66z"/>
</svg>
